<svg width="24" height="24" viewBox="0 0 24 24" fill="none" xmlns="http://www.w3.org/2000/svg">
<g id="calendar" clip-path="url(#clip0_1_3613)">
<g id="Group">
<g id="Group_2">
<path id="Vector" d="M8.74407 13.2405C8.74407 12.9399 8.50021 12.6963 8.19932 12.6963H6.29836C5.99781 12.6963 5.75391 12.9399 5.75391 13.2405V15.1412C5.75391 15.4423 5.99781 15.6859 6.29836 15.6859H8.19932C8.50021 15.6859 8.74407 15.4423 8.74407 15.1412V13.2405Z" fill="#525969"/>
<path id="Vector_2" d="M13.4947 13.2405C13.4947 12.9399 13.2508 12.6963 12.9505 12.6963H11.0493C10.7488 12.6963 10.5049 12.9399 10.5049 13.2405V15.1412C10.5049 15.4423 10.7488 15.6859 11.0493 15.6859H12.9505C13.2508 15.6859 13.4947 15.4423 13.4947 15.1412V13.2405Z" fill="#525969"/>
<path id="Vector_3" d="M18.246 13.2405C18.246 12.9399 18.0021 12.6963 17.7016 12.6963H15.8006C15.4997 12.6963 15.2559 12.9399 15.2559 13.2405V15.1412C15.2559 15.4423 15.4997 15.6859 15.8006 15.6859H17.7016C18.0021 15.6859 18.246 15.4423 18.246 15.1412V13.2405Z" fill="#525969"/>
<path id="Vector_4" d="M8.74407 17.992C8.74407 17.6909 8.50021 17.4475 8.19932 17.4475H6.29836C5.99781 17.4475 5.75391 17.6909 5.75391 17.992V19.8924C5.75391 20.1932 5.99781 20.4368 6.29836 20.4368H8.19932C8.50021 20.4368 8.74407 20.1932 8.74407 19.8924V17.992Z" fill="#525969"/>
<path id="Vector_5" d="M13.4947 17.992C13.4947 17.6909 13.2508 17.4475 12.9505 17.4475H11.0493C10.7488 17.4475 10.5049 17.6909 10.5049 17.992V19.8924C10.5049 20.1932 10.7488 20.4368 11.0493 20.4368H12.9505C13.2508 20.4368 13.4947 20.1932 13.4947 19.8924V17.992Z" fill="#525969"/>
<path id="Vector_6" d="M18.246 17.992C18.246 17.6909 18.0021 17.4475 17.7018 17.4475H15.8006C15.4997 17.4475 15.2559 17.6909 15.2559 17.992V19.8924C15.2559 20.1932 15.4997 20.4368 15.8006 20.4368H17.7018C18.0021 20.4368 18.246 20.1932 18.246 19.8924V17.992Z" fill="#525969"/>
<path id="Vector_7" d="M21.6447 2.6718V5.575C21.6447 6.88721 20.5802 7.94466 19.2681 7.94466H17.769C16.4568 7.94466 15.3782 6.88721 15.3782 5.575V2.66138H8.62097V5.575C8.62097 6.88721 7.54239 7.94466 6.23047 7.94466H4.73099C3.41902 7.94466 2.35455 6.88721 2.35455 5.575V2.6718C1.20787 2.70636 0.265625 3.6552 0.265625 4.82144V21.8356C0.265625 23.0237 1.22867 23.9996 2.41684 23.9996H21.5823C22.7687 23.9996 23.7336 23.0217 23.7336 21.8356V4.82144C23.7336 3.6552 22.7914 2.70636 21.6447 2.6718ZM20.9484 20.7761C20.9484 21.2895 20.532 21.7061 20.0184 21.7061H3.93987C3.4262 21.7061 3.00987 21.2895 3.00987 20.7761V11.9876C3.00987 11.474 3.42615 11.0574 3.93987 11.0574H20.0183C20.532 11.0574 20.9483 11.474 20.9483 11.9876L20.9484 20.7761Z" fill="#525969"/>
<path id="Vector_8" d="M4.72521 6.38875H6.20813C6.65823 6.38875 7.02319 6.02434 7.02319 5.57423V0.814812C7.02319 0.364657 6.65823 0 6.20813 0H4.72521C4.27506 0 3.91016 0.364657 3.91016 0.814812V5.57423C3.91016 6.02434 4.27506 6.38875 4.72521 6.38875Z" fill="#525969"/>
<path id="Vector_9" d="M17.7496 6.38875H19.2325C19.6823 6.38875 20.0473 6.02434 20.0473 5.57423V0.814812C20.0473 0.364657 19.6824 0 19.2325 0H17.7496C17.2995 0 16.9346 0.364657 16.9346 0.814812V5.57423C16.9346 6.02434 17.2995 6.38875 17.7496 6.38875Z" fill="#525969"/>
</g>
</g>
</g>
<defs>
<clipPath id="clip0_1_3613">
<rect width="24" height="24" fill="white"/>
</clipPath>
</defs>
</svg>
