<svg width="24" height="24" viewBox="0 0 24 24" fill="none" xmlns="http://www.w3.org/2000/svg">
<g id="chat" clip-path="url(#clip0_1_3632)">
<g id="Group">
<g id="Group_2">
<path id="Vector" d="M12.055 0C12.0486 0 12.0357 0 12.0164 0C5.50895 0 0.216797 5.29214 0.216797 11.7996C0.216797 14.4553 1.12347 17.0339 2.78249 19.1109L1.0656 23.1041C0.924132 23.432 1.07846 23.8114 1.39998 23.9465C1.51572 23.9979 1.64433 24.0108 1.7665 23.9915L8.06178 22.8855C9.32213 23.342 10.6468 23.5735 11.9843 23.5671C18.4918 23.5671 23.7839 18.2749 23.7839 11.7675C23.7968 5.27928 18.5432 0.00643031 12.055 0ZM8.01677 9.42683H11.4891C11.8428 9.42683 12.1322 9.7162 12.1322 10.0699C12.1322 10.4235 11.8428 10.7129 11.4891 10.7129H8.01677C7.6631 10.7129 7.37374 10.4235 7.37374 10.0699C7.37374 9.7162 7.6631 9.42683 8.01677 9.42683ZM15.9904 13.9281H8.01677C7.6631 13.9281 7.37374 13.6387 7.37374 13.285C7.37374 12.9314 7.6631 12.642 8.01677 12.642H15.9904C16.344 12.642 16.6334 12.9314 16.6334 13.285C16.6334 13.6387 16.344 13.9281 15.9904 13.9281Z" fill="#525969"/>
</g>
</g>
</g>
<defs>
<clipPath id="clip0_1_3632">
<rect width="24" height="24" fill="white"/>
</clipPath>
</defs>
</svg>
