<svg width="113" height="24" viewBox="0 0 113 24" fill="none" xmlns="http://www.w3.org/2000/svg">
<g id="Influexa">
<path d="M4.1634 23.834H0V1.46058H4.1634V23.834Z" fill="black"/>
<path d="M23.4348 23.834H19.4697V13.4772C19.4697 12.3707 19.2054 11.5408 18.6767 10.9876C18.148 10.4122 17.4321 10.1245 16.5289 10.1245C15.4936 10.1245 14.6234 10.5339 13.9185 11.3527C13.2136 12.1494 12.8611 13.3001 12.8611 14.805V23.834H8.89601V7.00415H12.8611V9.89212C13.8084 7.83403 15.5266 6.80498 18.0158 6.80498C19.69 6.80498 21.0117 7.31397 21.981 8.33195C22.9502 9.34993 23.4348 10.7884 23.4348 12.6473V23.834Z" fill="black"/>
<path d="M36.1705 9.9917H32.8332V23.834H28.8681V9.9917H26.4229V7.00415H28.8681V6.0083C28.8681 4.12725 29.3857 2.6556 30.4211 1.59336C31.4564 0.531121 32.8883 0 34.7166 0C35.5537 0 36.2807 0.0995851 36.8975 0.298755V3.65145C36.3247 3.43015 35.774 3.3195 35.2453 3.3195C33.6372 3.3195 32.8332 4.22683 32.8332 6.04149V7.00415H36.1705V9.9917Z" fill="black"/>
<path d="M42.9392 23.834H38.974V0.365146H42.9392V23.834Z" fill="black"/>
<path d="M61.7658 23.834H57.7676V21.0788C56.8865 23.0263 55.1683 24 52.613 24C50.9168 24 49.595 23.5131 48.6478 22.5394C47.7006 21.5657 47.227 20.1826 47.227 18.39V7.00415H51.1921V17.4606C51.1921 18.5228 51.4454 19.3306 51.9521 19.8838C52.4808 20.4371 53.1967 20.7137 54.0999 20.7137C55.2454 20.7137 56.1375 20.3264 56.7763 19.5519C57.4372 18.7773 57.7676 17.6044 57.7676 16.0332V7.00415H61.7658V23.834Z" fill="black"/>
<path d="M78.8632 22.9046C77.6956 23.6349 76.0105 24 73.8076 24C71.1421 24 69.0384 23.2033 67.4964 21.61C65.9544 20.0166 65.1834 17.9585 65.1834 15.4357C65.1834 12.758 65.9104 10.6556 67.3642 9.12863C68.8181 7.60166 70.6355 6.83817 72.8163 6.83817C74.9971 6.83817 76.7264 7.50208 78.004 8.82988C79.2817 10.1577 79.9205 12.0941 79.9205 14.639C79.9205 15.2586 79.8434 16.0553 79.6892 17.029H69.1816C69.468 18.2462 70.0627 19.1757 70.9659 19.8174C71.8911 20.4592 73.0366 20.7801 74.4024 20.7801C76.1647 20.7801 77.6516 20.3375 78.8632 19.4523V22.9046ZM72.9154 9.95851C71.9682 9.95851 71.1421 10.3126 70.4372 11.0207C69.7543 11.7068 69.3138 12.7137 69.1155 14.0415H76.1536V13.5436C76.1096 12.4592 75.8122 11.5961 75.2615 10.9544C74.7328 10.2905 73.9508 9.95851 72.9154 9.95851Z" fill="black"/>
<path d="M86.4067 23.834H82.0451L87.8937 15.3361L82.4085 7.00415H86.8693L90.0084 12.4813L93.3127 7.00415H97.7404L91.9249 15.3693L97.5422 23.834H93.1475L89.8432 18.1909L86.4067 23.834Z" fill="black"/>
<path d="M106.094 21.0124C106.975 21.0124 107.658 20.758 108.143 20.249C108.649 19.7178 108.903 19.0318 108.903 18.1909V16.5975H106.854C105.819 16.5975 105.026 16.8188 104.475 17.2614C103.924 17.6819 103.649 18.2241 103.649 18.888C103.649 20.3043 104.464 21.0124 106.094 21.0124ZM109.068 21.8091C108.297 23.2476 106.843 23.9668 104.706 23.9668C103.12 23.9668 101.854 23.5021 100.906 22.5726C99.9811 21.6432 99.5185 20.4703 99.5185 19.0539C99.5185 17.4606 100.113 16.2102 101.303 15.3029C102.492 14.3956 104.211 13.9419 106.458 13.9419H108.903V12.9129C108.903 11.9834 108.66 11.2752 108.176 10.7884C107.691 10.3015 106.865 10.0581 105.698 10.0581C103.913 10.0581 102.272 10.556 100.774 11.5519V7.86722C102.03 7.09267 103.836 6.70539 106.193 6.70539C110.731 6.70539 113 8.82988 113 13.0788V23.834H109.068V21.8091Z" fill="black"/>
</g>
</svg>
