<svg width="24" height="24" viewBox="0 0 24 24" fill="none" xmlns="http://www.w3.org/2000/svg">
<g id="material-symbols:keyboard-double-arrow-right-rounded">
<path id="Vector" d="M5.69967 17.3C5.51634 17.1167 5.42467 16.8834 5.42467 16.6C5.42467 16.3167 5.51634 16.0834 5.69967 15.9L9.57467 12L5.69967 8.10005C5.51634 7.91672 5.42034 7.68772 5.41167 7.41305C5.403 7.13838 5.499 6.90072 5.69967 6.70005C5.883 6.51672 6.11634 6.42505 6.39967 6.42505C6.683 6.42505 6.91634 6.51672 7.09967 6.70005L11.6997 11.3C11.7997 11.4 11.8707 11.5084 11.9127 11.625C11.9547 11.7417 11.9753 11.8667 11.9747 12C11.9747 12.1334 11.954 12.2584 11.9127 12.375C11.8713 12.4917 11.8003 12.6 11.6997 12.7L7.09967 17.3C6.91634 17.4834 6.68734 17.5794 6.41267 17.588C6.138 17.5967 5.90034 17.5007 5.69967 17.3ZM12.2997 17.3C12.1163 17.1167 12.0247 16.8834 12.0247 16.6C12.0247 16.3167 12.1163 16.0834 12.2997 15.9L16.1747 12L12.2997 8.10005C12.1163 7.91672 12.0203 7.68772 12.0117 7.41305C12.003 7.13838 12.099 6.90072 12.2997 6.70005C12.483 6.51672 12.7163 6.42505 12.9997 6.42505C13.283 6.42505 13.5163 6.51672 13.6997 6.70005L18.2997 11.3C18.3997 11.4 18.4707 11.5084 18.5127 11.625C18.5547 11.7417 18.5753 11.8667 18.5747 12C18.5747 12.1334 18.5537 12.2584 18.5117 12.375C18.4697 12.4917 18.399 12.6 18.2997 12.7L13.6997 17.3C13.5163 17.4834 13.2873 17.5794 13.0127 17.588C12.738 17.5967 12.5003 17.5007 12.2997 17.3Z" fill="#F23802"/>
</g>
</svg>
